<?xml version="1.0" standalone="no"?>
<!DOCTYPE svg PUBLIC "-//W3C//DTD SVG 20010904//EN"
 "http://www.w3.org/TR/2001/REC-SVG-20010904/DTD/svg10.dtd">
<svg version="1.0" xmlns="http://www.w3.org/2000/svg"
 width="866.000000pt" height="650.000000pt" viewBox="0 0 866.000000 650.000000"
 preserveAspectRatio="xMidYMid meet">

<g transform="translate(0.000000,650.000000) scale(0.100000,-0.100000)"
fill="#000000" stroke="none">
<path d="M3673 6210 c-79 -16 -174 -78 -222 -145 -52 -73 17 148 -837 -2645
-168 -547 -316 -1031 -330 -1075 -14 -44 -27 -88 -30 -97 -4 -13 36 2 148 54
350 161 710 280 1046 344 79 14 95 21 102 39 5 13 163 550 352 1195 277 945
348 1177 367 1196 31 31 81 32 116 2 28 -25 9 35 315 -998 71 -239 185 -626
255 -860 69 -234 135 -455 145 -491 l20 -66 137 -28 c336 -66 748 -207 1047
-357 54 -27 100 -48 102 -46 2 3 -75 260 -170 574 -243 793 -881 2886 -922
3019 -61 201 -102 270 -202 334 -95 60 -104 61 -782 60 -338 -1 -634 -5 -657
-9z"/>
<path d="M3357 2143 c-37 -59 -53 -550 -17 -528 4 2 5 -7 2 -20 -8 -42 32
-180 49 -170 4 3 6 -4 4 -16 -5 -25 65 -160 78 -152 6 3 7 1 3 -5 -9 -15 76
-132 95 -132 5 0 13 19 20 43 6 23 16 48 21 54 6 7 8 19 4 28 -3 8 -2 14 2 12
11 -3 68 55 64 66 -1 5 2 6 7 3 5 -4 17 1 25 10 9 8 16 13 16 10 0 -3 17 2 38
11 32 13 209 27 197 15 -2 -3 17 -15 43 -28 95 -48 131 -147 133 -376 1 -60 4
-108 8 -108 4 0 7 -24 8 -54 1 -30 7 -65 14 -78 7 -13 12 -26 11 -30 -1 -5 2
-8 6 -8 5 0 9 -6 9 -14 0 -20 42 -106 52 -106 5 0 14 -13 21 -30 15 -35 81
-107 130 -140 19 -13 39 -30 43 -37 5 -7 12 -11 18 -8 5 4 9 2 9 -3 0 -4 15
-16 34 -25 l34 -16 -10 36 c-18 66 -20 78 -25 181 -6 105 11 203 42 242 16 20
29 53 26 65 -2 6 1 7 5 3 8 -8 41 32 36 45 -1 4 2 6 6 5 11 -4 82 58 82 71 0
5 5 13 12 17 7 4 8 3 4 -4 -13 -21 100 49 115 71 3 5 8 7 10 5 7 -6 111 63
105 70 -4 3 -12 0 -17 -8 -9 -13 -10 -13 -6 0 2 8 14 16 26 16 21 1 61 26 106
65 59 52 105 97 105 103 0 4 18 26 40 49 22 23 46 56 52 74 7 18 15 33 19 33
12 0 71 149 63 162 -3 4 3 19 13 34 14 22 17 51 17 163 1 127 -17 246 -33 224
-3 -4 -11 -9 -18 -10 -7 -2 -36 -18 -65 -36 -29 -19 -63 -37 -76 -41 -12 -4
-20 -12 -17 -17 4 -5 -3 -10 -14 -10 -21 -2 -39 -5 -43 -8 -2 -2 -14 -5 -28
-7 -13 -2 -27 -8 -30 -12 -3 -4 -12 -9 -20 -11 -8 -2 -49 -12 -90 -23 -41 -11
-88 -21 -105 -24 -16 -2 -73 -11 -125 -19 -87 -14 -446 -21 -535 -10 -16 2
-63 8 -104 13 -40 6 -82 9 -92 7 -11 -2 -17 0 -15 4 3 4 -30 16 -72 26 -42 9
-105 28 -139 41 -35 13 -63 20 -63 16 0 -4 -4 -2 -8 3 -13 18 -81 45 -99 39
-15 -5 -15 -4 -4 4 12 9 10 12 -12 17 -15 4 -27 11 -27 15 0 5 -9 12 -21 15
-23 8 -121 100 -136 129 -6 10 -13 14 -16 9z m1883 -183 c0 -5 -8 -10 -17 -10
-15 0 -16 2 -3 10 19 12 20 12 20 0z"/>
</g>
</svg>
